<?xml version="1.0" standalone="no"?><!DOCTYPE svg PUBLIC "-//W3C//DTD SVG 1.1//EN" "http://www.w3.org/Graphics/SVG/1.1/DTD/svg11.dtd"><svg t="1623581224214" class="icon" viewBox="0 0 1024 1024" version="1.1" xmlns="http://www.w3.org/2000/svg" p-id="574" width="64" height="64" xmlns:xlink="http://www.w3.org/1999/xlink"><defs><style type="text/css"></style></defs><path d="M512 512m-512 0a512 512 0 1 0 1024 0 512 512 0 1 0-1024 0Z" fill="#6499FE" p-id="575"></path><path d="M474.88 659.52L363.904 547.648l29.376-13.568 78.336 61.056 178.432-173.312 22.848 10.176-198.016 227.52z m303.232-151.488l-57.664-57.728V386.176a47.552 47.552 0 0 0-47.552-47.552H608.768l-58.048-58.048a45.952 45.952 0 0 0-64.96 0l-58.048 58.048h-63.808a47.552 47.552 0 0 0-47.552 47.552v63.744l-58.048 58.112a45.952 45.952 0 0 0 0 64.96l58.048 58.048v64.128c0 26.24 21.312 47.552 47.552 47.552h64.128l57.728 57.664c17.92 17.92 47.04 17.92 64.96 0l57.664-57.664h64.512c26.24 0 47.552-21.312 47.552-47.552V630.656l57.664-57.664a45.952 45.952 0 0 0 0-64.96z" fill="#FFFFFF" p-id="576"></path></svg>