<?xml version="1.0" standalone="no"?><!DOCTYPE svg PUBLIC "-//W3C//DTD SVG 1.1//EN" "http://www.w3.org/Graphics/SVG/1.1/DTD/svg11.dtd"><svg t="1623581319459" class="icon" viewBox="0 0 1024 1024" version="1.1" xmlns="http://www.w3.org/2000/svg" p-id="2715" xmlns:xlink="http://www.w3.org/1999/xlink" width="64" height="64"><defs><style type="text/css"></style></defs><path d="M803.7283709 500.55911311c-108.68255998 0-200.20630337 88.66310273-200.20630334 200.20630336 0 108.68255998 88.66310273 200.20630337 200.20630334 200.20630338 108.68255998 0 200.20630337-88.66310273 200.20630339-200.20630338S915.27157158 500.55911311 803.7283709 500.55911311z m122.98408754 131.56433374l-122.98408754 160.16403721c-2.86064069 5.72128134-11.44088689 8.5802462-17.16049238 8.58024619-5.71960551 0-14.29985173-2.85896484-17.16049241-5.71960554l-91.52206757-77.22221582c-5.72128134-5.71960551-8.5802462-11.44088689-8.58024619-17.16049242 0-5.71960551 2.85896484-11.44088689 5.71960552-17.16049238 5.71960551-5.71960551 11.44088689-8.5802462 17.16049241-8.58024622 5.71960551 0 11.44088689 2.86064069 17.1604924 5.71960553l71.50261031 60.06172342 105.82191928-140.14290409c8.5802462-11.44088689 22.88177377-11.44088689 34.32098483-5.72128139 11.44088689 11.44088689 14.30152754 28.6013793 5.72128134 37.18162551z" fill="#FF6600" p-id="2716"></path><path d="M803.7283709 440.4973897c71.5026103 0 134.42329858 28.6013793 180.18517029 74.36325099v-308.88886335c0-42.90123101-37.18162549-80.0828565-80.0828565-80.0828565H100.14818223c-42.90123101 0-80.0828565 37.18162549-80.08285652 80.0828565v551.99472188c0 42.90123101 37.18162549 80.0828565 80.08285652 80.08285653h483.35442807c-25.7407386-40.04059035-40.04226615-85.80246203-40.04226616-137.28393928 0-145.86418548 117.26448198-260.26802678 260.26802676-260.26802677z m-208.78654956-188.76541648h280.28915989c8.5802462 0 17.16049241 8.5802462 17.16049242 17.1604924s-8.5802462 17.16049241-17.16049242 17.16049241H594.94182134c-8.5802462 0-17.16049241-8.5802462-17.1604924-17.16049241s8.5802462-17.16049241 17.1604924-17.1604924z m0 91.52374338h280.28915989c8.5802462 0 17.16049241 8.5802462 17.16049242 17.16049241s-8.5802462 17.16049241-17.16049242 17.16049241H594.94182134c-8.5802462 0-17.16049241-8.5802462-17.1604924-17.16049241s8.5802462-17.16049241 17.1604924-17.16049241zM514.86064069 675.02467787c-2.86064069 14.29985173-5.72128134 22.88009793-8.5802462 25.7407386-5.72128134 2.86064069-8.5802462 2.86064069-14.30152758 5.71960555-8.5802462 2.86064069-17.16049241 2.86064069-28.59970346 5.72128135s-22.88177377 2.85896484-37.18162548 5.71960552c-25.7407386 2.86064069-54.3421179 5.71960551-80.08285651 5.71960553H271.7531063c-28.6013793-2.85896484-54.3421179-2.85896484-80.08285652-5.71960553-14.29985173-2.86064069-25.7407386-2.86064069-37.17994966-5.71960552s-20.02113309-2.86064069-28.60137928-5.72128135c-5.71960551 0-11.44088689-2.85896484-14.29985173-5.71960555-2.86064069-2.86064069-5.72128134-11.44088689-8.58024621-25.7407386-2.86064069-14.29985173 0-31.46034414 2.85896485-54.34211789 0-11.43921105 5.72128134-22.88009793 14.30152756-28.59970348 8.5802462-5.72128134 17.16049241-11.44088689 28.59970346-17.1604924 11.44088689-2.86064069 22.88177377-8.5802462 34.32098482-11.44088687 11.44088689-2.86064069 22.88177377-8.5802462 31.46201996-14.29985174 5.71960551-2.86064069 11.43921105-8.5802462 17.16049239-11.44088689 2.85896484-2.86064069 5.71960551-8.5802462 8.58024621-11.44088687 2.85896484-2.85896484 2.85896484-8.5802462 2.85896486-11.43921104v-14.30152758c0-8.5802462-2.85896484-14.29985173-8.58024621-20.01945725l-14.2998517-14.30152756-8.58024622-8.5802462c-2.86064069-5.71960551-2.86064069-8.5802462-5.71960554-14.29985174s-2.86064069-11.44088689-5.72128135-17.16049239c-2.85896484 0-5.71960551-2.86064069-5.71960552-2.8606407-5.71960551-5.71960551-11.44088689-11.43921105-11.44088688-20.01945725-2.85896484-5.72128134-2.85896484-11.44088689-2.85896486-17.1604924 0-2.86064069 0-8.5802462 2.85896486-11.44088685 2.86064069-2.86064069 2.86064069-8.5802462 5.72128135-11.44088691 0-25.7407386 2.85896484-51.48147723 8.58024622-74.36157516 2.85896484-11.44088689 8.5802462-22.88009793 17.16049239-34.32098481 5.71960551-8.5802462 14.29985173-17.16049241 22.88009793-22.88009795 14.29985173-11.44088689 31.46034414-17.16049241 48.62083655-20.02113306 8.5802462 0 17.16049241-2.86064069 22.88177376-2.86064068h5.71960553c8.5802462 0 14.29985173 0 22.88009794 2.86064068 17.16049241 2.86064069 34.32098481 11.44088689 48.62251236 20.02113306 8.5802462 5.71960551 14.29985173 14.29985173 22.88009794 22.88009795 8.5802462 11.44088689 11.44088689 22.88009793 17.16049241 34.32098481 5.71960551 22.88009793 11.44088689 48.62083655 8.5802462 74.36157516 2.86064069 2.86064069 5.71960551 5.72128134 5.71960553 11.44088691 2.86064069 2.86064069 2.86064069 8.5802462 2.86064066 11.44088685 0 5.71960551 0 11.43921105-2.86064066 17.1604924-2.85896484 8.5802462-5.71960551 14.29985173-11.43921104 20.01945725-5.72128134 2.86064069-8.5802462 2.86064069-11.44088692 2.8606407-2.86064069 5.71960551-2.86064069 11.44088689-5.71960552 17.16049239-2.86064069 5.71960551-2.86064069 8.5802462-5.72128135 14.29985174-2.85896484 2.86064069-5.71960551 8.5802462-8.58024619 8.5802462-5.71960551 5.72128134-11.43921105 8.5802462-14.29985171 14.30152756-5.71960551 5.71960551-8.5802462 11.43921105-8.5802462 20.01945725v14.30152758c0 5.71960551 0 8.5802462 2.86064065 11.43921104 2.85896484 5.72128134 5.71960551 8.5802462 8.5802462 11.44088687 5.71960551 5.71960551 11.43921105 8.5802462 17.1604924 11.44088689 8.5802462 5.71960551 20.01945725 11.43921105 31.46034415 14.29985174 11.44088689 2.86064069 22.88009793 5.71960551 34.32098482 11.44088687 11.44088689 2.85896484 20.02113309 8.5802462 28.60137928 17.1604924 8.5802462 8.5802462 14.29985173 17.16049241 14.29985173 28.59970348 2.86064069 22.88177377 5.71960551 40.04226615 2.86064069 54.34211789z" fill="#FF6600" p-id="2717"></path></svg>