<svg t="1623647892312" class="icon" viewBox="0 0 1024 1024" version="1.1" xmlns="http://www.w3.org/2000/svg" p-id="5576" width="200" height="200"><path d="M827.6736 35.6352H196.352c-18.944 0-35.328 10.6496-44.032 26.1376-4.1216 7.3216-6.656 15.5904-6.656 24.5504v851.3536c0 27.8784 22.8096 50.6624 50.6624 50.6624H827.648c18.944 0 35.328-10.6496 44.032-26.1376a49.92 49.92 0 0 0 6.6304-24.5248V86.3232a50.7904 50.7904 0 0 0-50.6368-50.688z" fill="#62D1A9" p-id="5577"></path><path d="M771.6352 836.224h-514.048c-24.96 0-45.2864-21.632-45.2864-48.2816v-89.1392c0-26.6496 20.3008-48.3328 45.2864-48.3328h514.048c24.96 0 45.2864 21.6576 45.2864 48.3328v89.1392c0 26.5984-20.3008 48.2816-45.2864 48.2816z" fill="#59BA98" p-id="5578"></path><path d="M271.5392 687.6416c-13.4656 0-24.4224 11.648-24.4224 25.984v59.4432c0 14.3616 10.9568 25.984 24.4224 25.984h479.232c13.4144 0 24.4224-11.648 24.4224-25.984v-59.4432c0-14.3616-10.9824-25.984-24.4224-25.984h-479.232zM768.64 581.5808h-185.7536c-26.5984 0-48.256-23.6544-48.256-52.736v-267.52c0-29.0816 21.632-52.736 48.256-52.736h185.7536c26.5984 0 48.2816 23.6288 48.2816 52.736v267.52c0 29.0304-21.632 52.736-48.2816 52.736z" fill="#59BA98" p-id="5579"></path><path d="M597.76 257.28c-14.3616 0-25.984 12.7488-25.984 28.416v218.8544c0 15.6672 11.648 28.3648 25.984 28.3648h148.608c14.3104 0 26.0352-12.6976 26.0352-28.3648v-218.9056c0-15.6672-11.7248-28.416-26.0352-28.416H597.76v0.0512zM420.2752 586.752h-155.9808a48.3328 48.3328 0 0 1-48.2816-48.3328v-66.8416c0-26.6496 21.632-48.3328 48.2816-48.3328h155.9808c26.6496 0 48.2816 21.6576 48.2816 48.3328v66.8416a48.384 48.384 0 0 1-48.2816 48.3328z" fill="#59BA98" p-id="5580"></path><path d="M314.2656 440.1664c-14.3616 0-26.0352 11.6736-26.0352 25.984v22.2976c0 14.3616 11.6736 25.984 26.0352 25.984h111.4368c14.3104 0 26.0096-11.648 26.0096-25.984v-22.272c0-14.3104-11.6736-25.984-26.0096-25.984h-111.4368v-0.0256zM420.2752 372.096h-155.9808a48.3328 48.3328 0 0 1-48.2816-48.3328v-66.8416c0-26.6496 21.632-48.3328 48.2816-48.3328h155.9808c26.6496 0 48.2816 21.632 48.2816 48.3328v66.8416a48.384 48.384 0 0 1-48.2816 48.3328z" fill="#59BA98" p-id="5581"></path><path d="M314.2656 225.5616c-14.3616 0-26.0352 11.6736-26.0352 26.0352v29.6704c0 14.3616 11.6736 26.0352 26.0352 26.0352h111.4368c14.3104 0 26.0096-11.6736 26.0096-26.0352v-29.696c0-14.3616-11.6736-26.0352-26.0096-26.0352h-111.4368v0.0256z" fill="#59BA98" p-id="5582"></path><path d="M403.6864 107.3408h-3.7632c1.3824 1.408 2.4576 3.072 3.7632 4.5824v-4.5824zM260.7872 107.3408v4.5824c1.3056-1.4848 2.3808-3.1744 3.7632-4.5824h-3.7632zM332.2368 269.5936a94.6432 94.6432 0 0 1-71.4496-32.8448v156.416l71.4496-71.4496 71.4496 71.4496v-156.416a94.6432 94.6432 0 0 1-71.4496 32.8448z" fill="#B63434" p-id="5583"></path><path d="M332.2368 269.5936a94.6432 94.6432 0 0 0 71.4496-32.8448V111.9232c-1.3056-1.5104-2.3808-3.1744-3.7632-4.5824h-135.3728c-1.3824 1.408-2.4576 3.0976-3.7632 4.5824v124.8256a94.6432 94.6432 0 0 0 71.4496 32.8448z" fill="#A52020" p-id="5584"></path><path d="M332.2368 79.0528c49.3056 0 89.3952 37.6064 94.2848 85.6064 0.3328-3.2512 0.9984-6.3744 0.9984-9.7024a95.2832 95.2832 0 0 0-190.5408 0c0 3.3024 0.64 6.4512 0.9728 9.6768 4.8896-48 44.9792-85.5808 94.2848-85.5808z" fill="#D3711A" p-id="5585"></path><path d="M332.2368 250.24c49.3056 0 89.3952-37.5808 94.2848-85.6064-4.9152-48-45.0048-85.6064-94.2848-85.6064S242.8416 116.6336 237.952 164.6336c4.8896 48.0256 44.9792 85.6064 94.2848 85.6064z" fill="#D3711A" p-id="5586"></path><path d="M332.2368 79.0528c49.6128 0 89.9072 38.0672 94.3872 86.528a11.8016 11.8016 0 0 0 10.9568-11.6992 11.8784 11.8784 0 0 0-11.3664-11.8016l-0.128-1.2288a11.776 11.776 0 0 0 7.6032-14.1824 11.8272 11.8272 0 0 0-13.5936-8.4992c-0.1792-0.4608-0.4608-0.8704-0.6656-1.3312a11.776 11.776 0 0 0-12.2368-20.0448l-0.7936-0.9472a11.8528 11.8528 0 0 0-0.4608-16.1536 11.8528 11.8528 0 0 0-16.3072-0.3328c-0.3584-0.256-0.64-0.5632-0.9984-0.8192a11.8016 11.8016 0 0 0-4.6848-15.36 11.776 11.776 0 0 0-15.6416 3.6864c-0.4352-0.1792-0.9216-0.256-1.3824-0.4352a11.776 11.776 0 0 0-22.8608-5.5296l-1.1776-0.128a11.8272 11.8272 0 0 0-11.7504-11.136 11.8272 11.8272 0 0 0-11.8016 11.3664l-1.2544 0.128a11.8272 11.8272 0 0 0-14.1824-7.6288 11.8272 11.8272 0 0 0-8.4736 13.5936c-0.4608 0.1792-0.896 0.4608-1.3568 0.64a11.776 11.776 0 0 0-15.4624-3.456 11.8528 11.8528 0 0 0-4.5568 15.7184l-0.9472 0.7936a11.8528 11.8528 0 0 0-16.1536 0.4608 11.904 11.904 0 0 0-0.3072 16.3328c-0.2816 0.3584-0.5888 0.64-0.8448 0.9984a11.8528 11.8528 0 0 0-15.36 4.6592 11.8528 11.8528 0 0 0 3.6864 15.6672l-0.4096 1.3568a11.8528 11.8528 0 0 0-13.5168 8.4992 11.8528 11.8528 0 0 0 7.9616 14.336l-0.128 1.2032a11.8528 11.8528 0 0 0-11.136 11.7504c0 6.144 4.736 11.0336 10.7264 11.648 3.456-49.4592 44.2624-88.6528 94.6176-88.6528zM237.44 169.6512a11.6736 11.6736 0 0 0-6.656 13.6448 11.4944 11.4944 0 0 0 7.8848 7.9616 94.848 94.848 0 0 1-1.6896-16.9472c0-1.5872 0.384-3.072 0.4608-4.6592zM241.5872 208.5888a11.1104 11.1104 0 0 0 3.3024 3.584c-1.792-4.096-2.9952-8.4992-4.1984-12.8768a11.3408 11.3408 0 0 0 0.896 9.2928zM424.0128 206.6944a11.5456 11.5456 0 0 0 0.5888-10.0352 96.8704 96.8704 0 0 1-4.2752 13.7984 11.52 11.52 0 0 0 3.6864-3.7632zM426.7776 167.0656c0.1792 2.432 0.7424 4.7872 0.7424 7.2448 0 5.12-0.7424 10.0608-1.5104 14.976a11.5712 11.5712 0 0 0 8.2688-8.1152 11.8016 11.8016 0 0 0-7.5008-14.1056z" fill="#D3711A" p-id="5587"></path><path d="M426.7776 167.0656c-0.1536-0.0512-0.2816-0.1792-0.4608-0.256l0.128-1.1776 0.1792-0.0512c-4.48-48.4608-44.7744-86.528-94.3872-86.528-50.3552 0-91.1616 39.1936-94.6176 88.6784 0.2304 0.0256 0.4096 0.128 0.64 0.1536l0.128 1.2288c-0.3584 0.128-0.6144 0.384-0.9472 0.5376-0.0768 1.5872-0.4608 3.072-0.4608 4.6592 0 5.8112 0.7168 11.4176 1.7152 16.9472a11.776 11.776 0 0 0 5.6832 0.512l0.6656 1.3312a12.032 12.032 0 0 0-4.352 6.1696c1.2032 4.4032 2.4064 8.7808 4.1984 12.8768 3.5328 2.56 8.2944 3.072 12.3904 0.9728l0.7936 0.9472a11.8528 11.8528 0 0 0 0.4608 16.1792 11.8528 11.8528 0 0 0 16.3328 0.3328c0.3584 0.256 0.64 0.5632 0.9984 0.8192a11.776 11.776 0 0 0 4.6848 15.3344 11.776 11.776 0 0 0 15.6416-3.6608c0.4352 0.1792 0.9216 0.256 1.3824 0.4352a11.776 11.776 0 0 0 22.8608 5.5552l1.1776 0.128a11.8272 11.8272 0 0 0 11.7504 11.136c6.4 0 11.52-5.0688 11.8272-11.3664l1.2288-0.128c2.048 5.8112 8.1408 9.2416 14.1824 7.6288a11.8272 11.8272 0 0 0 8.4736-13.5936l1.3568-0.6656a11.776 11.776 0 0 0 20.0192-12.2624l0.9472-0.7936a11.8528 11.8528 0 0 0 16.1536-0.4608 11.8528 11.8528 0 0 0 0.3328-16.3072c0.2816-0.3584 0.5888-0.64 0.8448-0.9984a11.9296 11.9296 0 0 0 11.648-0.896c1.8176-4.4288 3.1488-9.0624 4.2752-13.7984a12.2112 12.2112 0 0 0-4.2496-5.632c0.1792-0.4352 0.256-0.9216 0.4096-1.3824a11.904 11.904 0 0 0 5.2224-0.384c0.7424-4.9152 1.4848-9.8304 1.4848-14.976 0-2.4576-0.5632-4.8128-0.7424-7.2448z" fill="#D3711A" p-id="5588"></path><path d="M379.2128 91.904a78.2336 78.2336 0 0 0-46.9504-15.8208c-17.664 0-33.8176 6.016-46.9504 15.8208a94.3616 94.3616 0 0 1 46.9504-12.8512c17.152 0 33.024 4.8896 46.9504 12.8512z" fill="#FCD036" p-id="5589"></path><path d="M253.3376 154.9568a78.8992 78.8992 0 0 0 157.7984 0 78.5408 78.5408 0 0 0-31.9232-63.0784 94.3616 94.3616 0 0 0-46.9504-12.8512c-17.1776 0-33.0496 4.9152-46.9504 12.8512a78.592 78.592 0 0 0-31.9744 63.0784z" fill="#FCD036" p-id="5590"></path></svg>
